<?xml version="1.0" encoding="UTF-8" standalone="no"?>
<!-- Created with Inkscape (http://www.inkscape.org/) -->

<svg
   xmlns:dc="http://purl.org/dc/elements/1.1/"
   xmlns:cc="http://creativecommons.org/ns#"
   xmlns:rdf="http://www.w3.org/1999/02/22-rdf-syntax-ns#"
   xmlns:svg="http://www.w3.org/2000/svg"
   xmlns="http://www.w3.org/2000/svg"
   xmlns:xlink="http://www.w3.org/1999/xlink"
   version="1.1"
   width="222.40625"
   height="133.0625"
   id="svg3063">
  <defs
     id="defs3065">
    <linearGradient
       x1="528.33173"
       y1="520.49829"
       x2="575.35883"
       y2="488.15015"
       id="linearGradient4923"
       xlink:href="#linearGradient4917"
       gradientUnits="userSpaceOnUse"
       gradientTransform="translate(-433.73383,-426.82672)" />
    <linearGradient
       id="linearGradient4917">
      <stop
         id="stop4919"
         style="stop-color:#2ad4ff;stop-opacity:1"
         offset="0" />
      <stop
         id="stop4921"
         style="stop-color:#2a15ff;stop-opacity:1"
         offset="1" />
    </linearGradient>
    <linearGradient
       x1="528.33173"
       y1="520.49829"
       x2="575.35883"
       y2="488.15015"
       id="linearGradient3221"
       xlink:href="#linearGradient4917"
       gradientUnits="userSpaceOnUse"
       gradientTransform="translate(-433.73383,493.53546)" />
  </defs>
  <metadata
     id="metadata3068">
    <rdf:RDF>
      <cc:Work
         rdf:about="">
        <dc:format>image/svg+xml</dc:format>
        <dc:type
           rdf:resource="http://purl.org/dc/dcmitype/StillImage" />
        <dc:title></dc:title>
      </cc:Work>
    </rdf:RDF>
  </metadata>
  <g
     transform="matrix(1,0,0,-1,0.20258,1052.8139)"
     id="layer1">
    <g
       transform="translate(-433.73383,493.53546)"
       id="g3855"
       style="fill:#d3bc5f">
      <path
         d="m 524.73383,557.82672 -60,-30 -30,-80 30,-20 10,20 140,0 10,-20 30,20 -30,80 -60,30 0,-30 -40,0 z"
         id="path2995"
         style="fill:#d3bc5f;stroke:#000000;stroke-width:2;stroke-linecap:butt;stroke-linejoin:miter;stroke-opacity:1" />
      <path
         d="m 524.73383,557.82672 -60,-30 -30,-80 30,-20 10,20 140,0 10,-20 30,20 -30,80 -60,30 0,-30 -40,0 z"
         id="path3825"
         style="fill:#d3bc5f;stroke:#000000;stroke-width:2;stroke-linecap:butt;stroke-linejoin:miter;stroke-opacity:1" />
      <path
         d="m 524.73383,527.82672 -50,-80"
         id="path3845"
         style="fill:#d3bc5f;stroke:#000000;stroke-width:2;stroke-linecap:butt;stroke-linejoin:miter;stroke-opacity:1" />
      <path
         d="m 564.73383,527.82672 50,-80"
         id="path3847"
         style="fill:#d3bc5f;stroke:#000000;stroke-width:2;stroke-linecap:butt;stroke-linejoin:miter;stroke-opacity:1" />
      <path
         d="m 474.73383,447.82672 -10,80"
         id="path3849"
         style="fill:#d3bc5f;stroke:#000000;stroke-width:2;stroke-linecap:butt;stroke-linejoin:miter;stroke-opacity:1" />
      <path
         d="m 614.73383,447.82672 10,80"
         id="path3851"
         style="fill:#d3bc5f;stroke:#000000;stroke-width:2;stroke-linecap:butt;stroke-linejoin:miter;stroke-opacity:1" />
    </g>
    <path
       d="m 78.52638,995.89764 12.87814,19.99996 38.63439,0 12.87814,-19.99996 z"
       id="path3863"
       style="fill:url(#linearGradient3221);fill-opacity:1;stroke:#000000;stroke-width:1.13481867px;stroke-linecap:butt;stroke-linejoin:miter;stroke-opacity:1" />
    <path
       d="m 41,941.36218 -10,80.00002 60,30 0,-30 z"
       id="path4239"
       style="fill:#d3bc5f;fill-opacity:1;stroke:#000000;stroke-width:1px;stroke-linecap:butt;stroke-linejoin:miter;stroke-opacity:1" />
    <path
       d="m 57.202784,967.8116 6.636589,70.4086"
       id="path4241"
       style="fill:none;stroke:#000000;stroke-width:1px;stroke-linecap:butt;stroke-linejoin:miter;stroke-opacity:1" />
    <path
       d="M 77.270415,999.95911 91,1051.3622"
       id="path4245"
       style="fill:none;stroke:#000000;stroke-width:1px;stroke-linecap:butt;stroke-linejoin:miter;stroke-opacity:1" />
    <path
       d="m 181,941.36218 10,80.00002 -60,30 0,-30 z"
       id="path4239-4"
       style="fill:#d3bc5f;fill-opacity:1;stroke:#000000;stroke-width:1px;stroke-linecap:butt;stroke-linejoin:miter;stroke-opacity:1" />
    <path
       d="m 165.43085,966.23388 c 0.76886,1.53772 -9.33892,74.00512 -9.33892,74.00512"
       id="path4243-8"
       style="fill:none;stroke:#000000;stroke-width:1px;stroke-linecap:butt;stroke-linejoin:miter;stroke-opacity:1" />
    <path
       d="M 144.72958,999.95911 131,1051.3622"
       id="path4245-2"
       style="fill:none;stroke:#000000;stroke-width:1px;stroke-linecap:butt;stroke-linejoin:miter;stroke-opacity:1" />
    <path
       d="m 36.15379,930.30916 c -1.359165,0 -21.202975,49.47361 -21.202975,49.47361"
       id="path4274"
       style="fill:none;stroke:#000000;stroke-width:1px;stroke-linecap:butt;stroke-linejoin:miter;stroke-opacity:1" />
    <path
       d="m 185.62117,933.75085 c 1.35916,0 20.93114,48.11444 20.93114,48.11444"
       id="path4274-5"
       style="fill:none;stroke:#000000;stroke-width:1px;stroke-linecap:butt;stroke-linejoin:miter;stroke-opacity:1" />
    <path
       d="m 58.52081,949.89027 105.49073,0 -23.48849,36.7429 -58.74187,0 z"
       id="rect4310"
       style="fill:#806600;fill-opacity:1;stroke:#000000;stroke-width:0.83027333;stroke-miterlimit:4;stroke-opacity:1" />
    <path
       d="m 10.601487,944.44448 c 0,0 5.980326,17.39731 5.980326,15.49448 0,-1.90283 13.863484,-26.91147 13.863484,-26.91147 l -1.902831,-4.34933 z"
       id="path4821"
       style="fill:#806600;fill-opacity:1;stroke:#000000;stroke-width:1px;stroke-linecap:butt;stroke-linejoin:miter;stroke-opacity:1" />
    <path
       d="m 35.338291,941.45432 -12.776151,37.51295 5.164827,14.95082 8.426823,-45.12428 z"
       id="path4825"
       style="fill:#806600;fill-opacity:1;stroke:#000000;stroke-width:1px;stroke-linecap:butt;stroke-linejoin:miter;stroke-opacity:1" />
    <path
       d="m 57.84016,1025.8297 -18.25966,-9.2619 7.42652,-58.91062 5.29202,8.44563 z"
       id="path4853"
       style="fill:#806600;fill-opacity:1;stroke:#000000;stroke-width:0.78578824px;stroke-linecap:butt;stroke-linejoin:miter;stroke-opacity:1" />
    <path
       d="m 72.33668,1035.0341 10.93175,5.455 -9.56287,-38.4586 -9.91234,-15.53944 z"
       id="path4859"
       style="fill:#806600;fill-opacity:1;stroke:#000000;stroke-width:0.82491612px;stroke-linecap:butt;stroke-linejoin:miter;stroke-opacity:1" />
    <path
       d="m 64.08807,953.1626 19.84591,30.59252 19.84593,0 z"
       id="path4885"
       style="fill:#cccccc;fill-opacity:1;stroke:#000000;stroke-width:0.83027333px;stroke-linecap:butt;stroke-linejoin:miter;stroke-opacity:1" />
    <path
       d="m 158.86943,952.71599 -19.84592,31.03913 -19.84591,0 z"
       id="path4885-6"
       style="fill:#cccccc;fill-opacity:1;stroke:#000000;stroke-width:0.83027333px;stroke-linecap:butt;stroke-linejoin:miter;stroke-opacity:1" />
    <path
       d="m 98.53329,954.05581 12.77439,29.69931 12.54624,-29.69931 -12.54625,8.70881 z"
       id="path4907"
       style="fill:#cccccc;fill-opacity:1;stroke:#000000;stroke-width:0.83027333px;stroke-linecap:butt;stroke-linejoin:miter;stroke-opacity:1" />
    <path
       d="M 52.191937,941.45432 C 70.676582,927.319 91.607723,941.18248 91.607723,941.18248 z"
       id="path4927"
       style="fill:#00ffff;stroke:#000000;stroke-width:1px;stroke-linecap:butt;stroke-linejoin:miter;stroke-opacity:1" />
    <path
       d="m 171.93437,941.19446 c -18.48464,-14.13532 -39.41579,-0.27183 -39.41579,-0.27183 z"
       id="path4927-6"
       style="fill:#00ffff;stroke:#000000;stroke-width:1px;stroke-linecap:butt;stroke-linejoin:miter;stroke-opacity:1" />
    <path
       d="m 210.53465,946.21139 c 0,0 -5.98033,17.39732 -5.98033,15.49449 0,-1.90284 -13.86348,-26.91147 -13.86348,-26.91147 l 1.90283,-4.34933 z"
       id="path4821-7"
       style="fill:#806600;fill-opacity:1;stroke:#000000;stroke-width:1px;stroke-linecap:butt;stroke-linejoin:miter;stroke-opacity:1" />
    <path
       d="m 186.61335,941.86206 12.77615,37.51296 -5.16483,14.95081 -8.42682,-45.12428 z"
       id="path4825-2"
       style="fill:#806600;fill-opacity:1;stroke:#000000;stroke-width:1px;stroke-linecap:butt;stroke-linejoin:miter;stroke-opacity:1" />
    <path
       d="m 164.11148,1026.7811 18.25966,-9.2619 -7.42652,-58.9106 -5.29202,8.44563 z"
       id="path4853-1"
       style="fill:#806600;fill-opacity:1;stroke:#000000;stroke-width:0.78578824px;stroke-linecap:butt;stroke-linejoin:miter;stroke-opacity:1" />
    <path
       d="m 148.79946,1036.8011 -10.93175,5.4549 9.56287,-38.4586 9.91234,-15.53942 z"
       id="path4859-4"
       style="fill:#806600;fill-opacity:1;stroke:#000000;stroke-width:0.82491612px;stroke-linecap:butt;stroke-linejoin:miter;stroke-opacity:1" />
    <path
       d="m 87.66649,1001.122 c 7.89408,6.2958 19.69806,8.5842 19.69806,8.5842 l 21.07621,2.8321 -31.9714,-0.3069 z"
       id="path5952"
       style="fill:#f9f9f9;stroke:#000000;stroke-width:1;stroke-linecap:butt;stroke-linejoin:miter;stroke-opacity:1" />
  </g>
</svg>
