<?xml version="1.0" encoding="UTF-8" standalone="no"?>
<!-- Created with Inkscape (http://www.inkscape.org/) -->

<svg
   xmlns:dc="http://purl.org/dc/elements/1.1/"
   xmlns:cc="http://creativecommons.org/ns#"
   xmlns:rdf="http://www.w3.org/1999/02/22-rdf-syntax-ns#"
   xmlns:svg="http://www.w3.org/2000/svg"
   xmlns="http://www.w3.org/2000/svg"
   version="1.1"
   width="50"
   height="50"
   id="svg3162">
  <defs
     id="defs3164">
    <filter
       color-interpolation-filters="sRGB"
       id="filter3388">
      <feGaussianBlur
         stdDeviation="1.5"
         result="result6"
         id="feGaussianBlur3390" />
      <feComposite
         in2="result6"
         operator="atop"
         in="SourceGraphic"
         result="result8"
         id="feComposite3392" />
      <feComposite
         in2="SourceAlpha"
         operator="atop"
         in="result8"
         result="result9"
         id="feComposite3394" />
    </filter>
    <filter
       x="-0.25"
       y="-0.25"
       width="1.5"
       height="1.5"
       color-interpolation-filters="sRGB"
       id="filter4288">
      <feGaussianBlur
         stdDeviation="4"
         result="result8"
         id="feGaussianBlur4290" />
      <feComposite
         in2="result8"
         operator="xor"
         in="result8"
         result="result6"
         id="feComposite4292" />
      <feDisplacementMap
         in2="result6"
         scale="80"
         xChannelSelector="A"
         yChannelSelector="A"
         in="result6"
         result="result4"
         id="feDisplacementMap4294" />
      <feComposite
         in2="result4"
         operator="arithmetic"
         k1="3"
         k2="0"
         k3="0"
         k4="0"
         in="result8"
         result="result2"
         id="feComposite4296" />
      <feComposite
         in2="result2"
         operator="in"
         in="result2"
         result="fbSourceGraphic"
         id="feComposite4298" />
    </filter>
    <filter
       x="-0.25"
       y="-0.25"
       width="1.5"
       height="1.5"
       color-interpolation-filters="sRGB"
       id="filter4276">
      <feGaussianBlur
         stdDeviation="4"
         result="result8"
         id="feGaussianBlur4278" />
      <feComposite
         in2="result8"
         operator="xor"
         in="result8"
         result="result6"
         id="feComposite4280" />
      <feDisplacementMap
         in2="result6"
         scale="80"
         xChannelSelector="A"
         yChannelSelector="A"
         in="result6"
         result="result4"
         id="feDisplacementMap4282" />
      <feComposite
         in2="result4"
         operator="arithmetic"
         k1="3"
         k2="0"
         k3="0"
         k4="0"
         in="result8"
         result="result2"
         id="feComposite4284" />
      <feComposite
         in2="result2"
         operator="in"
         in="result2"
         result="fbSourceGraphic"
         id="feComposite4286" />
    </filter>
    <filter
       color-interpolation-filters="sRGB"
       id="filter3388-1">
      <feGaussianBlur
         stdDeviation="1.5"
         result="result6"
         id="feGaussianBlur3390-7" />
      <feComposite
         in2="result6"
         operator="atop"
         in="SourceGraphic"
         result="result8"
         id="feComposite3392-4" />
      <feComposite
         in2="SourceAlpha"
         operator="atop"
         in="result8"
         result="result9"
         id="feComposite3394-0" />
    </filter>
    <filter
       x="-0.25"
       y="-0.25"
       width="1.5"
       height="1.5"
       color-interpolation-filters="sRGB"
       id="filter4288-9">
      <feGaussianBlur
         stdDeviation="4"
         result="result8"
         id="feGaussianBlur4290-4" />
      <feComposite
         in2="result8"
         operator="xor"
         in="result8"
         result="result6"
         id="feComposite4292-8" />
      <feDisplacementMap
         in2="result6"
         scale="80"
         xChannelSelector="A"
         yChannelSelector="A"
         in="result6"
         result="result4"
         id="feDisplacementMap4294-8" />
      <feComposite
         in2="result4"
         operator="arithmetic"
         k1="3"
         k2="0"
         k3="0"
         k4="0"
         in="result8"
         result="result2"
         id="feComposite4296-2" />
      <feComposite
         in2="result2"
         operator="in"
         in="result2"
         result="fbSourceGraphic"
         id="feComposite4298-4" />
    </filter>
    <filter
       x="-0.25"
       y="-0.25"
       width="1.5"
       height="1.5"
       color-interpolation-filters="sRGB"
       id="filter4276-5">
      <feGaussianBlur
         stdDeviation="4"
         result="result8"
         id="feGaussianBlur4278-5" />
      <feComposite
         in2="result8"
         operator="xor"
         in="result8"
         result="result6"
         id="feComposite4280-1" />
      <feDisplacementMap
         in2="result6"
         scale="80"
         xChannelSelector="A"
         yChannelSelector="A"
         in="result6"
         result="result4"
         id="feDisplacementMap4282-7" />
      <feComposite
         in2="result4"
         operator="arithmetic"
         k1="3"
         k2="0"
         k3="0"
         k4="0"
         in="result8"
         result="result2"
         id="feComposite4284-1" />
      <feComposite
         in2="result2"
         operator="in"
         in="result2"
         result="fbSourceGraphic"
         id="feComposite4286-1" />
    </filter>
  </defs>
  <metadata
     id="metadata3167">
    <rdf:RDF>
      <cc:Work
         rdf:about="">
        <dc:format>image/svg+xml</dc:format>
        <dc:type
           rdf:resource="http://purl.org/dc/dcmitype/StillImage" />
        <dc:title></dc:title>
      </cc:Work>
    </rdf:RDF>
  </metadata>
  <g
     transform="translate(0,-1002.3622)"
     id="layer1">
    <path
       d="M 20.21875,0 C 20.014772,-0.00400313 19.823161,0.01339364 19.625,0.03125 18.673827,0.11696053 17.789608,0.48765 17,1.5 15.506857,3.2875119 9.9421377,-2.9838908 8.7351237,3.5872299 8.1232097,6.9185588 2.1295584,5.4329612 0.96875,10.3125 c -2.3252472,9.774338 -0.39802,34.789369 5.375,36.497509 4.079978,1.207195 13.421465,3.871111 14.625,3.65625 L 21.3125,49.875 c 0,0 -0.622373,-0.87588 0.125,-1.125 0.747372,-0.24912 1.09375,-3.96875 1.09375,-3.96875 0,0 -1.570917,2.185496 -3.78125,3.4375 -0.427049,-0.193215 -0.875785,-0.385733 -1.4375,-0.625 -0.142188,-0.06057 -0.267345,-0.125818 -0.40625,-0.1875 0.54283,-1.243325 0.40625,-3.625 0.40625,-3.625 0,0 -1.182255,1.599633 -2.71875,2.46875 -0.634663,-0.357856 -1.228865,-0.741949 -1.78125,-1.125 1.108468,-0.79372 1.75,-3.84375 1.75,-3.84375 0,0 -0.587366,1.722601 -3.84375,2.1875 -0.497947,-0.460722 -0.9319452,-0.955925 -1.34375,-1.4375 1.07108,-0.849068 1.96875,-2.5 1.96875,-2.5 0,0 -1.5086609,0.763248 -3.1875,0.90625 -0.4254879,-0.652242 -0.7866965,-1.330589 -1.09375,-2 l 2.15625,-0.53125 c 0,0 -1.1670133,0.218955 -2.46875,-0.15625 C 6.5181727,37.170992 6.3161882,36.581571 6.15625,36 c 1.2353686,0.07723 3.3123143,0.236491 5.40625,0.65625 -0.843614,1.34181 -2.15625,2 -2.15625,2 l 3.90625,-1.5625 c 0.4705,0.131974 0.934753,0.272408 1.375,0.4375 0.06204,0.02327 0.125784,0.03854 0.1875,0.0625 -0.501259,1.646376 -1.59375,2.96875 -1.59375,2.96875 0,0 2.874854,-0.775035 3.53125,-2.0625 0.589199,0.310441 1.135753,0.659023 1.65625,1 -0.991442,2.438487 -2.5,2.6875 -2.5,2.6875 0,0 3.566003,-0.18964 4.25,-1.34375 0.01253,-0.02114 0.02053,-0.04125 0.03125,-0.0625 0.163766,0.13803 0.323044,0.272071 0.46875,0.40625 -0.180984,1.810382 -1.34375,3.625 -1.34375,3.625 0,0 1.808813,-0.616799 2.875,-1.4375 0.05115,0.02795 0.136803,-0.03655 0.21875,-0.15625 0.380095,-0.336444 0.607098,-0.691717 0.53125,-1.0625 -0.0046,-0.02246 -0.02571,-0.04036 -0.03125,-0.0625 0.271721,-0.683482 0.5625,-1.4375 0.5625,-1.4375 0,0 -0.09857,-1.379379 -1.46875,-2.625 C 20.860771,36.938768 13.956488,32.184872 10.46875,31.4375 8.1615889,30.943108 6.4699836,31.137885 5.5,31.6875 c -0.078467,-1.744653 0.033512,-3.417013 0.1875,-4.875 0.64145,-6.07338 5.469985,-15.452412 6.03125,-14.21875 0.28063,0.616825 -3.2645315,7.405622 0.663598,5.993869 2.461927,-0.884807 0.242652,7.068631 0.242652,7.068631 1.726445,5.247718 5.589228,10.87186 12.0625,11.125 0.106896,0.004 0.236213,0 0.34375,0 0.09632,-4e-4 0.185451,0.004 0.28125,0 6.473267,-1.007485 10.713229,-6.631627 11.811052,-11.125 0,0 -1.680624,-8.522782 0.494098,-7.068631 4.179576,2.794719 0.382966,-5.377044 0.6636,-5.993869 0.561271,-1.233658 5.389803,8.14537 6.03125,14.21875 0.183564,1.738023 0.498373,3.497025 0.5625,5.28125 -0.680123,-0.554851 -3.319441,-2.926154 -5.89355,-2.215904 -1.98215,0.546917 -6.403362,3.950325 -7.48145,5.309654 -1.432464,1.80615 -4.220939,4.599005 -4.84375,6.09375 -0.62281,1.494745 1.125,1.875 1.125,1.875 0,0 0.03075,-0.03087 0.03125,-0.03125 1.001841,0.920608 3.125,1.65625 3.125,1.65625 0,0 -0.913894,-1.424202 -1.25,-3 0.248039,-0.168753 0.587837,-0.372819 0.875,-0.5625 1.180276,0.766765 3.78125,0.9375 3.78125,0.9375 0,0 -1.196808,-0.20923 -2.15625,-1.96875 0.582362,-0.361755 1.189102,-0.747663 1.84375,-1.125 1.039808,0.9254 3,1.46875 3,1.46875 0,0 -0.82954,-1.00434 -1.375,-2.34375 0.591511,-0.316032 1.1955,-0.640088 1.8125,-0.9375 l 3.4375,1.375 c 0,0 -1.280355,-0.651843 -2.125,-1.96875 2.006559,-0.880865 4.045204,-1.575168 5.9375,-1.84375 -0.15381,0.919033 -0.43177,1.868734 -0.875,2.8125 -1.406278,0.491848 -2.75,0.25 -2.75,0.25 l 2.3125,0.59375 c -0.363149,0.628112 -0.834862,1.264816 -1.375,1.90625 -1.625591,-0.168343 -3.0625,-0.875 -3.0625,-0.875 0,0 0.762383,1.39722 1.71875,2.28125 -0.531338,0.504253 -1.11534,1.017589 -1.78125,1.53125 C 36.242659,42.724927 35.75,41.25 35.75,41.25 c 0,0 0.476228,2.231939 1.3125,3.375 -0.609547,0.40279 -1.264937,0.80965 -1.96875,1.21875 C 33.868464,44.951301 33,43.75 33,43.75 c 0,0 -0.100181,1.862009 0.25,3.15625 -0.761791,0.427244 -1.424767,0.801921 -1.96875,1.125 -2.064217,-1.270614 -3.5,-3.28125 -3.5,-3.28125 0,0 0.34638,3.71963 1.09375,3.96875 0.388687,0.129561 -0.109089,0.708604 0.34375,1.497509 2.140626,0.09317 1.796231,0.02648 5.625,-1.34375 0.269912,-0.06001 0.536604,-0.150259 0.78125,-0.28125 2.80838,-1.011134 5.808282,-2.109468 7.65625,-2.65625 5.773026,-1.70814 8.075245,-25.848169 5.75,-35.622509 C 47.870443,5.4329612 41.174215,6.9730797 41.264875,3.5872299 41.440825,-2.9838909 34.49314,3.2875119 33,1.5 30.894382,-1.19961 28.319891,0.58253 25.40625,0.46875 c -0.0729,-0.003 -0.145545,0.001 -0.21875,0 -0.03393,-4e-4 -0.05975,0 -0.09375,0 l -0.0625,0 c -0.07321,9e-4 -0.145845,-0.003 -0.21875,0 C 23.219102,0.53096801 21.646597,0.02802189 20.21875,0 z"
       transform="matrix(1,0,0,0.98556879,3.8199894e-8,1002.4904)"
       id="path4689"
       style="fill:#0055d4;fill-opacity:1;stroke:none;filter:url(#filter3388-1)" />
    <path
       d="m 35.696518,1026.7896 c 2.54294,3.3503 -6.733086,11.293 -10.851377,11.293 -4.118292,0 -12.548061,-7.2663 -10.725651,-11.0451 2.13731,-4.4318 6.858807,-1.0085 10.977099,-1.0085 4.118291,0 6.95393,-4.0428 10.599929,0.7606 z"
       id="path4759"
       style="fill:#002255;fill-opacity:1;stroke:none" />
    <path
       d="m 331.42857,613.79077 a 132.85715,115.71429 0 1 1 -265.714291,0 132.85715,115.71429 0 1 1 265.714291,0 z"
       transform="matrix(0.01954175,0,0,0.0205394,21.045485,1017.3497)"
       id="path4761"
       style="fill:#d4ff2a;fill-opacity:1;stroke:none" />
    <path
       d="m 331.42857,613.79077 a 132.85715,115.71429 0 1 1 -265.714291,0 132.85715,115.71429 0 1 1 265.714291,0 z"
       transform="matrix(0.01780172,0,0,0.0202505,21.356013,1022.8736)"
       id="path4767"
       style="fill:#d4ff2a;fill-opacity:1;stroke:none" />
    <path
       d="m -104.52443,910.05236 c -7.93791,4.08055 -11.7866,3.13159 -12.34786,5.88359 -0.56127,2.752 -2.08471,10.24882 -1.92434,12.33655 0.16036,2.08772 1.28289,13.94979 2.24506,15.56303 0.96217,1.61324 4.49013,5.02952 4.49013,5.02952 0,0 0.80181,-1.70814 1.6838,-1.89793 0.88199,-0.18979 0.56127,-0.28469 0.56127,-0.28469 0,0 -3.60814,-3.60607 -4.24959,-5.12441 -0.64145,-1.51835 -1.84416,-4.64994 -1.84416,-6.45297 0,-1.80303 2.56579,-11.76717 2.88651,-12.52635 0.32073,-0.75917 4.16941,-5.12441 4.73068,-5.3142 0.56126,-0.1898 1.12253,-0.0949 1.12253,-0.0949 z"
       transform="matrix(1,0,0,0.98556879,119.99931,108.52726)"
       id="path4763"
       style="fill:#95c0ff;fill-opacity:0.87765958;stroke:none;filter:url(#filter4288-9)" />
    <path
       d="m -85.51727,910.43195 c 7.937912,4.08055 11.786597,3.13158 12.347863,5.88358 0.561267,2.752 2.084704,10.24883 1.924343,12.33655 -0.160362,2.08773 -1.282895,13.9498 -2.245066,15.56304 -0.962172,1.61324 -4.490132,5.02952 -4.490132,5.02952 0,0 -0.80181,-1.70814 -1.6838,-1.89793 -0.88199,-0.1898 -0.561266,-0.28469 -0.561266,-0.28469 0,0 3.608141,-3.60607 4.249589,-5.12442 0.641448,-1.51834 1.844161,-4.64993 1.844161,-6.45296 0,-1.80304 -2.56579,-11.76718 -2.886513,-12.52635 -0.320724,-0.75917 -4.169409,-5.12441 -4.730675,-5.31421 -0.561267,-0.18979 -1.122533,-0.0949 -1.122533,-0.0949 z"
       transform="matrix(1,0,0,0.98556879,119.99931,108.52726)"
       id="path4765"
       style="fill:#95c0ff;fill-opacity:0.87765958;stroke:none;filter:url(#filter4276-5)" />
    <path
       d="m 331.42857,613.79077 a 132.85715,115.71429 0 1 1 -265.714291,0 132.85715,115.71429 0 1 1 265.714291,0 z"
       transform="matrix(0.0150369,0,0,0.01660245,26.504866,1023.3521)"
       id="path4767-5"
       style="fill:#aad400;fill-opacity:1;stroke:none" />
    <path
       d="m 331.42857,613.79077 a 132.85715,115.71429 0 1 1 -265.714291,0 132.85715,115.71429 0 1 1 265.714291,0 z"
       transform="matrix(0.01734092,0,0,0.0181659,16.64717,1022.0898)"
       id="path4767-2"
       style="fill:#aad400;fill-opacity:1;stroke:none" />
    <path
       d="m 331.42857,613.79077 a 132.85715,115.71429 0 1 1 -265.714291,0 132.85715,115.71429 0 1 1 265.714291,0 z"
       transform="matrix(0.01273287,0,0,0.01608129,13.75297,1019.3728)"
       id="path4767-3"
       style="fill:#83a300;fill-opacity:1;stroke:none" />
    <path
       d="m 331.42857,613.79077 a 132.85715,115.71429 0 1 1 -265.714291,0 132.85715,115.71429 0 1 1 265.714291,0 z"
       transform="matrix(0.0150369,0,0,0.01660245,26.750622,1018.0841)"
       id="path4767-5-3"
       style="fill:#aad400;fill-opacity:1;stroke:none" />
    <path
       d="m 331.42857,613.79077 a 132.85715,115.71429 0 1 1 -265.714291,0 132.85715,115.71429 0 1 1 265.714291,0 z"
       transform="matrix(0.0150369,0,0,0.01660245,17.289,1017.7208)"
       id="path4767-5-3-3"
       style="fill:#aad400;fill-opacity:1;stroke:none" />
    <path
       d="m 331.42857,613.79077 a 132.85715,115.71429 0 1 1 -265.714291,0 132.85715,115.71429 0 1 1 265.714291,0 z"
       transform="matrix(0.01273287,0,0,0.01608129,31.144843,1019.3719)"
       id="path4767-3-5"
       style="fill:#83a300;fill-opacity:1;stroke:none" />
  </g>
</svg>
