<?xml version="1.0" encoding="UTF-8" standalone="no"?>
<!-- Created with Inkscape (http://www.inkscape.org/) -->

<svg
   xmlns:dc="http://purl.org/dc/elements/1.1/"
   xmlns:cc="http://creativecommons.org/ns#"
   xmlns:rdf="http://www.w3.org/1999/02/22-rdf-syntax-ns#"
   xmlns:svg="http://www.w3.org/2000/svg"
   xmlns="http://www.w3.org/2000/svg"
   version="1.1"
   width="50"
   height="50"
   id="svg3166">
  <defs
     id="defs3168">
    <filter
       color-interpolation-filters="sRGB"
       id="filter3388">
      <feGaussianBlur
         stdDeviation="1.5"
         result="result6"
         id="feGaussianBlur3390" />
      <feComposite
         in2="result6"
         operator="atop"
         in="SourceGraphic"
         result="result8"
         id="feComposite3392" />
      <feComposite
         in2="SourceAlpha"
         operator="atop"
         in="result8"
         result="result9"
         id="feComposite3394" />
    </filter>
    <filter
       x="-0.25"
       y="-0.25"
       width="1.5"
       height="1.5"
       color-interpolation-filters="sRGB"
       id="filter4288">
      <feGaussianBlur
         stdDeviation="4"
         result="result8"
         id="feGaussianBlur4290" />
      <feComposite
         in2="result8"
         operator="xor"
         in="result8"
         result="result6"
         id="feComposite4292" />
      <feDisplacementMap
         in2="result6"
         scale="80"
         xChannelSelector="A"
         yChannelSelector="A"
         in="result6"
         result="result4"
         id="feDisplacementMap4294" />
      <feComposite
         in2="result4"
         operator="arithmetic"
         k1="3"
         k2="0"
         k3="0"
         k4="0"
         in="result8"
         result="result2"
         id="feComposite4296" />
      <feComposite
         in2="result2"
         operator="in"
         in="result2"
         result="fbSourceGraphic"
         id="feComposite4298" />
    </filter>
    <filter
       x="-0.25"
       y="-0.25"
       width="1.5"
       height="1.5"
       color-interpolation-filters="sRGB"
       id="filter4276">
      <feGaussianBlur
         stdDeviation="4"
         result="result8"
         id="feGaussianBlur4278" />
      <feComposite
         in2="result8"
         operator="xor"
         in="result8"
         result="result6"
         id="feComposite4280" />
      <feDisplacementMap
         in2="result6"
         scale="80"
         xChannelSelector="A"
         yChannelSelector="A"
         in="result6"
         result="result4"
         id="feDisplacementMap4282" />
      <feComposite
         in2="result4"
         operator="arithmetic"
         k1="3"
         k2="0"
         k3="0"
         k4="0"
         in="result8"
         result="result2"
         id="feComposite4284" />
      <feComposite
         in2="result2"
         operator="in"
         in="result2"
         result="fbSourceGraphic"
         id="feComposite4286" />
    </filter>
  </defs>
  <metadata
     id="metadata3171">
    <rdf:RDF>
      <cc:Work
         rdf:about="">
        <dc:format>image/svg+xml</dc:format>
        <dc:type
           rdf:resource="http://purl.org/dc/dcmitype/StillImage" />
        <dc:title></dc:title>
      </cc:Work>
    </rdf:RDF>
  </metadata>
  <g
     transform="translate(0,-1002.3622)"
     id="layer1">
    <path
       d="m 20.21875,1002.4872 c -0.203978,0 -0.395589,0.014 -0.59375,0.031 -0.951173,0.084 -1.835392,0.4398 -2.625,1.4375 -1.493143,1.7617 -7.0429858,-4.41376 -8.2499998,2.0625 -0.611914,3.2833 -6.3921222,3.3168 -7.5625002,6.4063 -0.2833782,0.748 -0.2727988,-0.024 0.34375,2.375 -3.046758,20.4346 -0.4223667,31.0984 0.3509531,32.9014 1.3447373,3.1352 3.4646941,-0.013 6.4062501,1.2283 1.7190958,0.7253 3.0835078,1.9513 5.2115468,2.6203 2.396156,0.7533 2.546896,-1.9552 4.40625,-1.7356 1.313907,0.1552 1.287649,0.892 2.5,1.6418 1.212351,0.7498 1.809282,0.1554 3.34375,0.125 -0.874945,-0.9754 -1.472861,-0.6191 -2.53125,-1.4375 -1.058389,-0.8184 -1.636599,-2.7142 -3.375,-2.8606 -1.419756,-0.1195 -1.772464,1.5124 -3.15625,1.1731 -1.869962,-0.4585 -3.273798,-1.7162 -4.7812498,-2.5132 -1.54757,-0.8183 -2.726804,0.112 -4.6875,-2.22 -1.960696,-2.3321 -0.6556826,-14.7539 2.40625,-23.048 0.818214,-2.2164 2.114132,-7.0685 4.0937498,-5.7813 1.250039,0.8128 -1.500584,2.5756 -2.2879608,3.8438 -2.253453,3.6295 -1.527903,8.9815 -1.83983,11.4447 -0.472736,3.7331 -1.638297,7.526 -1.206143,9.8334 0.346342,1.8493 4.7077698,5.0171 7.1151838,3.5025 1.75469,-1.104 4.122086,0.043 5.1875,1.0772 1.452271,1.4103 3.53125,2.9859 3.53125,2.9859 0,0 -1.493385,-3.4951 -2.6875,-4.7114 -1.345071,-1.37 -2.954839,-3.3938 -4.84375,-3.7377 -0.991975,-0.1806 -2.037389,1.0113 -2.96875,0.625 -1.8584578,-0.7707 -1.681793,-1.5009 -1.599981,-3.3791 0.0663,-1.522 1.07897,-4.1358 1.114387,-6.953 0.02449,-1.9476 -0.783293,-6.1136 1.329344,-8.4375 0.08241,-0.091 0.154074,-0.1657 0.21875,-0.25 1.744357,0.1429 -0.53125,7.0312 -0.53125,7.0312 1.835506,7.0952 7.752467,11.1797 12.78125,12.4688 5.161684,-1.472 10.027416,-4.9464 12.65625,-12.4688 0,0 -1.879664,-7.084 -0.5,-7.125 0.07852,0.1094 0.140539,0.2234 0.25,0.3438 2.11264,2.3239 1.195187,6.4968 1.360594,8.4375 0.188074,2.2066 2.069699,5.2183 2.001164,6.7402 -0.07083,1.5728 -0.659548,3.3114 -2.518008,4.0821 -0.93136,0.3862 -1.94552,-0.8056 -2.9375,-0.625 -1.88891,0.3439 -3.529929,1.8775 -4.875,3.2475 -1.194115,1.2163 -2.65625,4.7114 -2.65625,4.7114 0,0 1.621034,-1.3305 3.073305,-2.7408 1.06541,-1.0346 3.859505,-1.4459 5.614195,-0.342 2.40741,1.5146 7.907345,-2.5874 7.976291,-4.3666 0.06895,-1.7793 -1.052812,-8.041 -1.668362,-9.6443 -0.737927,-1.9221 0.977336,-7.1567 -1.842285,-12.0313 -0.826127,-1.4282 -3.75823,-2.534 -2.684394,-3.5625 1.159736,-1.1107 2.680132,1.316 3.71875,3.0625 3.718315,6.2528 5.972917,20.7815 2.59375,26.4675 -0.954181,1.6056 -2.219536,0.6688 -4.21875,1.8318 -2.287692,1.3308 -2.611636,1.5898 -4.4375,2.2007 -1.351153,0.4521 -2.032692,-1.2776 -3.5,-1.3606 -1.846195,-0.1043 -2.695164,2.147 -4.09375,2.8294 -1.123343,0.5481 -2.361749,0.5503 -3.4375,1.5 1.183548,0.01 2.742167,0.5176 3.6875,0.2187 1.261481,-0.3988 2.396582,-1.7189 3.71875,-1.7668 1.984928,-0.072 3.264981,2.4156 5.0625,1.8918 1.1019,-0.321 4.108706,-1.9314 5.530086,-2.8113 3.326912,-2.0596 4.07259,1.5978 5.431461,-1.0866 1.358871,-2.6843 2.674009,-23.4889 0.444703,-33.3521 0.08986,-0.5716 0.705683,-1.4189 0.46875,-2.0937 -1.13177,-3.2234 -8.09066,-3.0693 -8,-6.4063 0.17595,-6.47626 -6.75686,-0.3008 -8.25,-2.0625 -2.105618,-2.6606 -4.680109,-0.8878 -7.59375,-1 -0.0729,0 -0.145545,10e-4 -0.21875,0 -0.03393,-4e-4 -0.05975,0 -0.09375,0 l -0.0625,0 c -0.07321,9e-4 -0.145845,0 -0.21875,0 -1.593398,0.061 -3.165903,-0.4411 -4.59375,-0.4687 z"
       id="path4689"
       style="fill:#15b300;fill-opacity:1;stroke:none;filter:url(#filter3388)" />
    <path
       d="m 35.696518,1026.7897 c 2.54294,3.3502 -6.733086,11.2929 -10.851377,11.2929 -4.118292,0 -12.548061,-7.2663 -10.725651,-11.0451 2.13731,-4.4318 6.858807,-1.0085 10.977099,-1.0085 4.118291,0 6.95393,-4.0428 10.599929,0.7607 z"
       id="path4759"
       style="fill:#002255;fill-opacity:1;stroke:none" />
    <path
       d="m 331.42857,613.79077 a 132.85715,115.71429 0 1 1 -265.714291,0 132.85715,115.71429 0 1 1 265.714291,0 z"
       transform="matrix(0.01954175,0,0,0.0205394,21.045485,1017.3497)"
       id="path4761"
       style="fill:#d4ff2a;fill-opacity:1;stroke:none" />
    <path
       d="m 331.42857,613.79077 a 132.85715,115.71429 0 1 1 -265.714291,0 132.85715,115.71429 0 1 1 265.714291,0 z"
       transform="matrix(0.01780172,0,0,0.0202505,21.356013,1022.8736)"
       id="path4767"
       style="fill:#d4ff2a;fill-opacity:1;stroke:none" />
    <path
       d="m -104.52443,910.05236 c -7.93791,4.08055 -11.7866,3.13159 -12.34786,5.88359 -0.56127,2.752 -2.08471,10.24882 -1.92434,12.33655 0.16036,2.08772 1.28289,13.94979 2.24506,15.56303 0.96217,1.61324 4.49013,5.02952 4.49013,5.02952 0,0 0.80181,-1.70814 1.6838,-1.89793 0.88199,-0.18979 0.56127,-0.28469 0.56127,-0.28469 0,0 -3.60814,-3.60607 -4.24959,-5.12441 -0.64145,-1.51835 -1.84416,-4.64994 -1.84416,-6.45297 0,-1.80303 2.56579,-11.76717 2.88651,-12.52635 0.32073,-0.75917 4.16941,-5.12441 4.73068,-5.3142 0.56126,-0.1898 1.12253,-0.0949 1.12253,-0.0949 z"
       transform="matrix(0.97374689,0,0,0.87553971,116.78647,207.60724)"
       id="path4763"
       style="fill:#98ff92;fill-opacity:0.82978725;stroke:none;filter:url(#filter4288)" />
    <path
       d="m -85.51727,910.43195 c 7.937912,4.08055 11.786597,3.13158 12.347863,5.88358 0.561267,2.752 2.084704,10.24883 1.924343,12.33655 -0.160362,2.08773 -1.282895,13.9498 -2.245066,15.56304 -0.962172,1.61324 -4.490132,5.02952 -4.490132,5.02952 0,0 -0.80181,-1.70814 -1.6838,-1.89793 -0.88199,-0.1898 -0.561266,-0.28469 -0.561266,-0.28469 0,0 3.608141,-3.60607 4.249589,-5.12442 0.641448,-1.51834 1.844161,-4.64993 1.844161,-6.45296 0,-1.80304 -2.56579,-11.76718 -2.886513,-12.52635 -0.320724,-0.75917 -4.169409,-5.12441 -4.730675,-5.31421 -0.561267,-0.18979 -1.122533,-0.0949 -1.122533,-0.0949 z"
       transform="matrix(0.71716378,0,0,0.81157043,98.007117,266.14811)"
       id="path4765"
       style="fill:#98ff92;fill-opacity:0.82978725;stroke:none;filter:url(#filter4276)" />
    <path
       d="m 331.42857,613.79077 a 132.85715,115.71429 0 1 1 -265.714291,0 132.85715,115.71429 0 1 1 265.714291,0 z"
       transform="matrix(0.0150369,0,0,0.01660245,26.504866,1023.3522)"
       id="path4767-5"
       style="fill:#aad400;fill-opacity:1;stroke:none" />
    <path
       d="m 331.42857,613.79077 a 132.85715,115.71429 0 1 1 -265.714291,0 132.85715,115.71429 0 1 1 265.714291,0 z"
       transform="matrix(0.01734092,0,0,0.0181659,16.64717,1022.0898)"
       id="path4767-2"
       style="fill:#aad400;fill-opacity:1;stroke:none" />
    <path
       d="m 331.42857,613.79077 a 132.85715,115.71429 0 1 1 -265.714291,0 132.85715,115.71429 0 1 1 265.714291,0 z"
       transform="matrix(0.01273287,0,0,0.01608129,13.75297,1019.3728)"
       id="path4767-3"
       style="fill:#83a300;fill-opacity:1;stroke:none" />
    <path
       d="m 331.42857,613.79077 a 132.85715,115.71429 0 1 1 -265.714291,0 132.85715,115.71429 0 1 1 265.714291,0 z"
       transform="matrix(0.0150369,0,0,0.01660245,26.750622,1018.0841)"
       id="path4767-5-3"
       style="fill:#aad400;fill-opacity:1;stroke:none" />
    <path
       d="m 331.42857,613.79077 a 132.85715,115.71429 0 1 1 -265.714291,0 132.85715,115.71429 0 1 1 265.714291,0 z"
       transform="matrix(0.0150369,0,0,0.01660245,17.289,1017.7208)"
       id="path4767-5-3-3"
       style="fill:#aad400;fill-opacity:1;stroke:none" />
    <path
       d="m 331.42857,613.79077 a 132.85715,115.71429 0 1 1 -265.714291,0 132.85715,115.71429 0 1 1 265.714291,0 z"
       transform="matrix(0.01273287,0,0,0.01608129,31.144843,1019.3719)"
       id="path4767-3-5"
       style="fill:#83a300;fill-opacity:1;stroke:none" />
  </g>
</svg>
