<?xml version="1.0" encoding="UTF-8" standalone="no"?>
<!-- Created with Inkscape (http://www.inkscape.org/) -->

<svg
   xmlns:dc="http://purl.org/dc/elements/1.1/"
   xmlns:cc="http://creativecommons.org/ns#"
   xmlns:rdf="http://www.w3.org/1999/02/22-rdf-syntax-ns#"
   xmlns:svg="http://www.w3.org/2000/svg"
   xmlns="http://www.w3.org/2000/svg"
   version="1.1"
   width="50"
   height="50"
   id="svg3162">
  <defs
     id="defs3164">
    <filter
       color-interpolation-filters="sRGB"
       id="filter3388">
      <feGaussianBlur
         stdDeviation="1.5"
         result="result6"
         id="feGaussianBlur3390" />
      <feComposite
         in2="result6"
         operator="atop"
         in="SourceGraphic"
         result="result8"
         id="feComposite3392" />
      <feComposite
         in2="SourceAlpha"
         operator="atop"
         in="result8"
         result="result9"
         id="feComposite3394" />
    </filter>
    <filter
       x="-0.25"
       y="-0.25"
       width="1.5"
       height="1.5"
       color-interpolation-filters="sRGB"
       id="filter4288">
      <feGaussianBlur
         stdDeviation="4"
         result="result8"
         id="feGaussianBlur4290" />
      <feComposite
         in2="result8"
         operator="xor"
         in="result8"
         result="result6"
         id="feComposite4292" />
      <feDisplacementMap
         in2="result6"
         scale="80"
         xChannelSelector="A"
         yChannelSelector="A"
         in="result6"
         result="result4"
         id="feDisplacementMap4294" />
      <feComposite
         in2="result4"
         operator="arithmetic"
         k1="3"
         k2="0"
         k3="0"
         k4="0"
         in="result8"
         result="result2"
         id="feComposite4296" />
      <feComposite
         in2="result2"
         operator="in"
         in="result2"
         result="fbSourceGraphic"
         id="feComposite4298" />
    </filter>
    <filter
       x="-0.25"
       y="-0.25"
       width="1.5"
       height="1.5"
       color-interpolation-filters="sRGB"
       id="filter4276">
      <feGaussianBlur
         stdDeviation="4"
         result="result8"
         id="feGaussianBlur4278" />
      <feComposite
         in2="result8"
         operator="xor"
         in="result8"
         result="result6"
         id="feComposite4280" />
      <feDisplacementMap
         in2="result6"
         scale="80"
         xChannelSelector="A"
         yChannelSelector="A"
         in="result6"
         result="result4"
         id="feDisplacementMap4282" />
      <feComposite
         in2="result4"
         operator="arithmetic"
         k1="3"
         k2="0"
         k3="0"
         k4="0"
         in="result8"
         result="result2"
         id="feComposite4284" />
      <feComposite
         in2="result2"
         operator="in"
         in="result2"
         result="fbSourceGraphic"
         id="feComposite4286" />
    </filter>
  </defs>
  <metadata
     id="metadata3167">
    <rdf:RDF>
      <cc:Work
         rdf:about="">
        <dc:format>image/svg+xml</dc:format>
        <dc:type
           rdf:resource="http://purl.org/dc/dcmitype/StillImage" />
        <dc:title></dc:title>
      </cc:Work>
    </rdf:RDF>
  </metadata>
  <g
     transform="translate(0,-1002.3622)"
     id="layer1">
    <path
       d="M 20.21875,0 C 20.014772,-0.00400313 19.823161,0.01339364 19.625,0.03125 18.673827,0.11696053 17.789608,0.48765 17,1.5 15.506857,3.2875119 9.9421377,-2.9838908 8.7351237,3.5872299 8.1232097,6.9185588 2.1295584,5.4329612 0.96875,10.3125 c -2.3252472,9.774338 -0.39802,34.789369 5.375,36.497509 4.079978,1.207195 13.421465,3.741967 14.625,3.527106 l 0.34375,-0.591259 c 0,0 -0.560162,-0.603672 0.125,-0.995856 4.947628,-2.832004 0.457348,-8.61794 0.457348,-8.61794 0.938389,5.66582 -4.189109,7.872902 -8.425171,4.949595 2.069046,-0.985904 4.414896,-1.224347 5.67492,-5.479279 C 14.892308,44.448525 11.961132,40.36976 7.0625,38.4375 7.5096578,37.537978 14.764022,41.216435 16.346458,35.839943 11.585551,39.559108 10.810006,32.744292 5.7317562,31.034503 5.0351272,29.968012 5.3393595,30.134105 5.6875,26.8125 c 0.64145,-6.07338 5.469985,-15.452412 6.03125,-14.21875 0.28063,0.616825 -3.2645315,7.405622 0.663598,5.993869 2.461927,-0.884807 0.242652,7.068631 0.242652,7.068631 1.726445,5.247718 5.589228,10.87186 12.0625,11.125 0.106896,0.004 0.236213,0 0.34375,0 0.09632,-4e-4 0.185451,0.004 0.28125,0 6.473267,-1.007485 10.713229,-6.631627 11.811052,-11.125 0,0 -1.680624,-8.522782 0.494098,-7.068631 4.179576,2.794719 0.382966,-5.377044 0.6636,-5.993869 0.561271,-1.233658 5.389803,8.14537 6.03125,14.21875 0.304885,2.930707 1.52823,4.139143 1.058615,5.130156 -5.689266,0.928111 -4.816462,8.603118 -10.059437,3.388205 1.960642,6.87558 8.761009,3.146906 9.112816,3.654466 -4.72308,1.400674 -8.674625,5.188282 -12.87475,0.456655 1.312366,6.40321 4.561435,5.363326 5.580494,5.626903 -2.497857,1.948813 -10.959204,3.097308 -9.476268,-4.838931 -4.851032,5.957222 0.473661,8.239676 1.221034,8.488796 0.388687,0.129561 -0.109089,0.57946 0.34375,1.368365 2.140626,0.09317 1.796231,0.155624 5.625,-1.214606 0.269912,-0.06001 0.536604,-0.150259 0.78125,-0.28125 2.80838,-1.011134 5.808282,-2.109468 7.65625,-2.65625 5.773026,-1.70814 8.075245,-25.848169 5.75,-35.622509 C 47.870443,5.4329612 41.174215,6.9730797 41.264875,3.5872299 41.440825,-2.9838909 34.49314,3.2875119 33,1.5 30.894382,-1.19961 28.319891,0.58253 25.40625,0.46875 c -0.0729,-0.003 -0.145545,0.001 -0.21875,0 -0.03393,-4e-4 -0.05975,0 -0.09375,0 l -0.0625,0 c -0.07321,9e-4 -0.145845,-0.003 -0.21875,0 C 23.219102,0.53096801 21.646597,0.02802189 20.21875,0 z"
       transform="matrix(1,0,0,0.98556879,3.8199894e-8,1002.4904)"
       id="path4689"
       style="fill:#bb0000;fill-opacity:1;stroke:none;filter:url(#filter3388)" />
    <path
       d="m 35.696518,1026.7897 c 2.54294,3.3502 -6.733086,11.2929 -10.851377,11.2929 -4.118292,0 -12.548061,-7.2663 -10.725651,-11.0451 2.13731,-4.4318 6.858807,-1.0085 10.977099,-1.0085 4.118291,0 6.95393,-4.0428 10.599929,0.7607 z"
       id="path4759"
       style="fill:#002255;fill-opacity:1;stroke:none" />
    <path
       d="m 331.42857,613.79077 a 132.85715,115.71429 0 1 1 -265.714291,0 132.85715,115.71429 0 1 1 265.714291,0 z"
       transform="matrix(0.01954175,0,0,0.0205394,21.045485,1017.3497)"
       id="path4761"
       style="fill:#d4ff2a;fill-opacity:1;stroke:none" />
    <path
       d="m 331.42857,613.79077 a 132.85715,115.71429 0 1 1 -265.714291,0 132.85715,115.71429 0 1 1 265.714291,0 z"
       transform="matrix(0.01780172,0,0,0.0202505,21.356013,1022.8736)"
       id="path4767"
       style="fill:#d4ff2a;fill-opacity:1;stroke:none" />
    <path
       d="m -104.52443,910.05236 c -7.93791,4.08055 -11.7866,3.13159 -12.34786,5.88359 -0.56127,2.752 -2.08471,10.24882 -1.92434,12.33655 0.16036,2.08772 1.28289,13.94979 2.24506,15.56303 0.96217,1.61324 4.49013,5.02952 4.49013,5.02952 0,0 0.80181,-1.70814 1.6838,-1.89793 0.88199,-0.18979 0.56127,-0.28469 0.56127,-0.28469 0,0 -3.60814,-3.60607 -4.24959,-5.12441 -0.64145,-1.51835 -1.84416,-4.64994 -1.84416,-6.45297 0,-1.80303 2.56579,-11.76717 2.88651,-12.52635 0.32073,-0.75917 4.16941,-5.12441 4.73068,-5.3142 0.56126,-0.1898 1.12253,-0.0949 1.12253,-0.0949 z"
       transform="matrix(1,0,0,0.98556879,119.99931,108.52724)"
       id="path4763"
       style="opacity:0.88053098;fill:#ff795f;fill-opacity:1;stroke:none;filter:url(#filter4288)" />
    <path
       d="m -85.51727,910.43195 c 7.937912,4.08055 11.786597,3.13158 12.347863,5.88358 0.561267,2.752 2.084704,10.24883 1.924343,12.33655 -0.160362,2.08773 -1.282895,13.9498 -2.245066,15.56304 -0.962172,1.61324 -4.490132,5.02952 -4.490132,5.02952 0,0 -0.80181,-1.70814 -1.6838,-1.89793 -0.88199,-0.1898 -0.561266,-0.28469 -0.561266,-0.28469 0,0 3.608141,-3.60607 4.249589,-5.12442 0.641448,-1.51834 1.844161,-4.64993 1.844161,-6.45296 0,-1.80304 -2.56579,-11.76718 -2.886513,-12.52635 -0.320724,-0.75917 -4.169409,-5.12441 -4.730675,-5.31421 -0.561267,-0.18979 -1.122533,-0.0949 -1.122533,-0.0949 z"
       transform="matrix(1,0,0,0.98556879,119.99931,108.52724)"
       id="path4765"
       style="opacity:0.88053098;fill:#ff795f;fill-opacity:1;stroke:none;filter:url(#filter4276)" />
    <path
       d="m 331.42857,613.79077 a 132.85715,115.71429 0 1 1 -265.714291,0 132.85715,115.71429 0 1 1 265.714291,0 z"
       transform="matrix(0.0150369,0,0,0.01660245,26.504866,1023.3522)"
       id="path4767-5"
       style="fill:#aad400;fill-opacity:1;stroke:none" />
    <path
       d="m 331.42857,613.79077 a 132.85715,115.71429 0 1 1 -265.714291,0 132.85715,115.71429 0 1 1 265.714291,0 z"
       transform="matrix(0.01734092,0,0,0.0181659,16.64717,1022.0898)"
       id="path4767-2"
       style="fill:#aad400;fill-opacity:1;stroke:none" />
    <path
       d="m 331.42857,613.79077 a 132.85715,115.71429 0 1 1 -265.714291,0 132.85715,115.71429 0 1 1 265.714291,0 z"
       transform="matrix(0.01273287,0,0,0.01608129,13.75297,1019.3728)"
       id="path4767-3"
       style="fill:#83a300;fill-opacity:1;stroke:none" />
    <path
       d="m 331.42857,613.79077 a 132.85715,115.71429 0 1 1 -265.714291,0 132.85715,115.71429 0 1 1 265.714291,0 z"
       transform="matrix(0.0150369,0,0,0.01660245,26.750622,1018.0841)"
       id="path4767-5-3"
       style="fill:#aad400;fill-opacity:1;stroke:none" />
    <path
       d="m 331.42857,613.79077 a 132.85715,115.71429 0 1 1 -265.714291,0 132.85715,115.71429 0 1 1 265.714291,0 z"
       transform="matrix(0.0150369,0,0,0.01660245,17.289,1017.7208)"
       id="path4767-5-3-3"
       style="fill:#aad400;fill-opacity:1;stroke:none" />
    <path
       d="m 331.42857,613.79077 a 132.85715,115.71429 0 1 1 -265.714291,0 132.85715,115.71429 0 1 1 265.714291,0 z"
       transform="matrix(0.01273287,0,0,0.01608129,31.144843,1019.3719)"
       id="path4767-3-5"
       style="fill:#83a300;fill-opacity:1;stroke:none" />
  </g>
</svg>
